<svg width="276" height="69" fill="none" xmlns="http://www.w3.org/2000/svg"><path d="M4.048 3.768C6.33 1.443 9.136.28 12.464.28c.79 0 1.6.096 2.432.288.853.192 1.344.288 1.472.288.277 0 .586-.085.928-.256.341-.192.65-.288.928-.288.298 0 .554.117.768.352.213.213.416.65.608 1.312a29.34 29.34 0 0 1 1.024 4.576c.021.192.032.363.032.512 0 .277-.054.533-.16.768-.086.213-.33.33-.736.352h-.224a.94.94 0 0 1-.224-.032.807.807 0 0 0-.192-.096.686.686 0 0 1-.16-.128.55.55 0 0 0-.16-.16 3.002 3.002 0 0 1-.192-.224 1.919 1.919 0 0 0-.192-.256 1.51 1.51 0 0 0-.192-.32c-.107-.15-.182-.256-.224-.32-1.856-2.688-3.83-4.032-5.92-4.032-1.856 0-3.328.672-4.416 2.016C6.576 5.976 6.032 7.725 6.032 9.88c0 2.816.672 5.216 2.016 7.2 1.365 1.963 3.232 2.944 5.6 2.944 2.197 0 4.213-.97 6.048-2.912.234-.256.458-.384.672-.384.15 0 .31.085.48.256.192.15.288.363.288.64 0 .17-.054.373-.16.608-.662 1.493-1.835 2.72-3.52 3.68-1.664.939-3.53 1.408-5.6 1.408-3.286 0-5.984-1.003-8.096-3.008C1.67 18.307.624 15.608.624 12.216c0-3.307 1.141-6.123 3.424-8.448Zm19.04 17.248c.235-.235.48-.416.737-.544.277-.15.533-.501.768-1.056.234-.576.352-1.365.352-2.368V6.552c0-1.003-.118-1.781-.352-2.336-.235-.576-.49-.928-.768-1.056a3.634 3.634 0 0 1-.736-.576c-.235-.235-.352-.555-.352-.96 0-.384.138-.65.416-.8C23.43.674 23.92.6 24.625.6h12.608c.96 0 1.621.075 1.984.224.384.15.661.47.832.96.32.875.608 1.963.864 3.264.042.256.064.49.064.704 0 .576-.192.928-.576 1.056a.94.94 0 0 1-.352.064c-.448 0-.875-.31-1.28-.928-.704-1.045-1.419-1.813-2.144-2.304-.726-.49-1.579-.736-2.56-.736h-1.376c-.96 0-1.61.117-1.952.352-.342.213-.512.587-.512 1.12v3.008c0 .597.16 1.013.48 1.248.32.213.832.32 1.536.32h.064c.874 0 1.6-.181 2.176-.544.576-.384 1.013-.576 1.312-.576.533 0 .874.31 1.024.928l.832 4.096c.064.299.096.555.096.768 0 .15-.032.299-.096.448-.064.15-.214.256-.448.32a2.806 2.806 0 0 1-.416.064c-.278 0-.576-.139-.896-.416a5.611 5.611 0 0 1-.832-1.088c-.235-.427-.598-.821-1.088-1.184a2.73 2.73 0 0 0-1.664-.544h-.064c-.704 0-1.216.107-1.536.32-.32.213-.48.63-.48 1.248v6.432c0 .533.181.917.544 1.152.362.213 1.088.32 2.176.32l1.984-.032c.896 0 1.578-.267 2.048-.8.49-.555 1.077-1.515 1.76-2.88.405-.832.853-1.248 1.344-1.248.064 0 .128.01.192.032.362.085.586.235.672.448.085.213.128.523.128.928v.288c-.064 1.728-.235 3.104-.512 4.128-.15.533-.416.907-.8 1.12-.363.213-1.003.32-1.92.32H24.625c-.704 0-1.195-.075-1.472-.224-.278-.15-.416-.416-.416-.8 0-.405.117-.725.352-.96ZM43.34.824c.278-.15.768-.224 1.472-.224h8.16c2.112 0 3.979.31 5.6.928 1.643.597 2.955 1.408 3.936 2.432a10.356 10.356 0 0 1 2.208 3.424 10.93 10.93 0 0 1 .736 4c0 3.328-1.066 6.101-3.2 8.32C60.12 21.901 57.271 23 53.708 23h-8.896c-.704 0-1.194-.075-1.472-.224-.277-.15-.416-.416-.416-.8 0-.405.118-.725.352-.96.235-.235.48-.416.736-.544.278-.15.534-.501.768-1.056.235-.576.352-1.365.352-2.368V6.552c0-1.003-.117-1.781-.352-2.336-.234-.576-.49-.928-.768-1.056a3.634 3.634 0 0 1-.736-.576c-.234-.235-.352-.555-.352-.96 0-.384.139-.65.416-.8Zm7.648 19.552c.384.32 1.163.48 2.336.48 2.176 0 3.819-.661 4.928-1.984 1.13-1.323 1.696-3.157 1.696-5.504 0-3.03-.746-5.568-2.24-7.616C56.236 3.704 54.38 2.68 52.14 2.68c-.661 0-1.12.096-1.376.288-.234.17-.352.544-.352 1.12v14.784c0 .683.192 1.184.576 1.504Zm14.858 1.664c0-.277.096-.523.288-.736a2.54 2.54 0 0 1 .736-.512c.277-.15.576-.395.896-.736.341-.363.608-.79.8-1.28l5.6-13.824c.15-.47.224-.843.224-1.12a.891.891 0 0 0-.192-.544c-.107-.17-.32-.416-.64-.736-.299-.32-.448-.65-.448-.992 0-.64.363-.96 1.088-.96h3.968c.64 0 1.099.31 1.376.928l6.752 17.056c.235.576.501 1.056.8 1.44.32.384.587.64.8.768.213.107.395.256.544.448.15.192.224.437.224.736 0 .384-.128.65-.384.8-.256.15-.715.224-1.376.224h-5.856c-.597 0-1.024-.075-1.28-.224-.256-.15-.384-.416-.384-.8 0-.277.107-.523.32-.736a4.33 4.33 0 0 1 .672-.512.887.887 0 0 0 .416-.544c.064-.235.096-.405.096-.512 0-.299-.096-.661-.288-1.088l-.288-.736c-.192-.47-.405-.747-.64-.832-.363-.128-1.568-.192-3.616-.192-2.197 0-3.435.075-3.712.224-.17.107-.32.32-.448.64l-.448 1.088c-.192.576-.288 1.013-.288 1.312 0 .15.043.299.128.448.085.15.267.363.544.64.299.277.448.565.448.864 0 .619-.533.928-1.6.928H67.67c-1.216 0-1.824-.31-1.824-.928Zm7.744-7.68c.213.085 1.045.128 2.496.128 1.621 0 2.496-.064 2.624-.192.043-.043.064-.107.064-.192a1.24 1.24 0 0 0-.128-.48l-2.528-6.528-2.528 6.336c-.107.256-.16.47-.16.64 0 .15.053.245.16.288ZM90.34.824c.278-.15.768-.224 1.472-.224h7.52c3.328 0 5.91.747 7.744 2.24 1.856 1.472 2.784 3.445 2.784 5.92 0 2.944-1.194 4.97-3.584 6.08l2.208 3.776c.363.619.779 1.11 1.248 1.472.47.363.832.661 1.088.896.256.213.384.544.384.992 0 .384-.138.65-.416.8-.256.15-.725.224-1.408.224h-5.344c-1.024 0-1.536-.341-1.536-1.024 0-.299.128-.64.384-1.024.278-.384.448-.661.512-.832.064-.17.096-.299.096-.384 0-.299-.128-.725-.384-1.28l-1.504-2.592a19.06 19.06 0 0 1-1.312.032h-2.24c-.426 0-.64.213-.64.64v.768c0 .725.075 1.333.224 1.824.15.47.32.81.512 1.024.214.213.427.395.64.544.214.15.395.32.544.512.15.192.224.448.224.768 0 .384-.138.65-.416.8-.256.15-.746.224-1.472.224h-5.856c-.704 0-1.194-.075-1.472-.224-.277-.15-.416-.416-.416-.8 0-.363.118-.661.352-.896a3.18 3.18 0 0 1 .736-.608c.278-.15.534-.49.768-1.024.235-.555.352-1.27.352-2.144V6.552c0-1.003-.117-1.781-.352-2.336-.234-.576-.49-.928-.768-1.056a3.634 3.634 0 0 1-.736-.576c-.234-.235-.352-.555-.352-.96 0-.384.139-.65.416-.8Zm7.072 2.784V12.6c0 .405.192.693.576.864.406.15 1.078.224 2.016.224 1.494 0 2.614-.395 3.36-1.184.768-.79 1.152-1.888 1.152-3.296 0-1.984-.522-3.552-1.568-4.704-1.024-1.173-2.293-1.76-3.808-1.76-.725 0-1.194.064-1.408.192-.213.107-.32.33-.32.672Zm23.559 7.872a8.27 8.27 0 0 1 3.328-2.656c-1.494-.939-2.24-2.208-2.24-3.808 0-1.43.586-2.581 1.76-3.456 1.173-.896 2.549-1.344 4.128-1.344 2.346 0 4.128.683 5.344 2.048.234.256.352.501.352.736 0 .17-.075.352-.224.544a.73.73 0 0 1-.608.288c-.192 0-.416-.075-.672-.224-.96-.576-1.899-.864-2.816-.864-.854 0-1.547.235-2.08.704-.512.47-.768 1.077-.768 1.824 0 1.11.448 1.973 1.344 2.592.362-.043.693-.064.992-.064 1.28 0 1.92.416 1.92 1.248 0 .661-.278 1.045-.832 1.152-.555.085-.96.128-1.216.128a4.624 4.624 0 0 1-1.76-.352c-1.238 1.173-1.856 2.71-1.856 4.608 0 1.835.586 3.35 1.76 4.544 1.194 1.195 2.794 1.792 4.8 1.792 1.728 0 3.018-.405 3.872-1.216.874-.81 1.312-1.835 1.312-3.072 0-.832-.235-1.493-.704-1.984-.47-.49-1.056-.736-1.76-.736-.747 0-1.344.235-1.792.704-.448.47-.672 1.045-.672 1.728 0 .213-.139.32-.416.32h-.16c-.555-.043-.939-.384-1.152-1.024l-.096-.736c0-1.28.864-2.475 2.592-3.584.362-.235.778-.48 1.248-.736a52.988 52.988 0 0 1 1.664-.864c.64-.341 1.152-.619 1.536-.832 2.858-1.6 4.288-3.008 4.288-4.224 0-.768-.438-1.152-1.312-1.152-.363 0-.715.075-1.056.224a1.24 1.24 0 0 1-.48.128c-.256 0-.406-.085-.448-.256a2.194 2.194 0 0 1-.064-.448c0-.299.106-.587.32-.864.746-1.003 1.909-1.515 3.488-1.536h.096c.917 0 1.77.277 2.56.832.81.555 1.216 1.387 1.216 2.496 0 1.643-.747 3.061-2.24 4.256-1.472 1.195-3.392 2.133-5.76 2.816.853.299 1.568.832 2.144 1.6.597.747.896 1.675.896 2.784 0 2.39-1.014 4.288-3.04 5.696-2.006 1.387-4.448 2.08-7.328 2.08-3.051 0-5.611-.704-7.68-2.112-2.048-1.408-3.072-3.317-3.072-5.728 0-1.493.448-2.827 1.344-4Zm33.338 9.888a3.73 3.73 0 0 1 .64-.512c.235-.17.448-.427.64-.768a2.41 2.41 0 0 0 .352-1.184l.672-13.856v-.192c0-.341-.064-.65-.192-.928a1.445 1.445 0 0 0-.448-.64 5.272 5.272 0 0 0-.576-.448 2.896 2.896 0 0 1-.512-.512 1.24 1.24 0 0 1-.192-.704c0-.384.128-.65.384-.8.256-.15.683-.224 1.28-.224h4.288c.661 0 1.131.299 1.408.896l5.536 12.8 5.984-12.768c.32-.619.789-.928 1.408-.928h4.064c.597 0 1.024.075 1.28.224.277.15.416.416.416.8 0 .32-.107.597-.32.832a2.973 2.973 0 0 1-.704.576c-.235.128-.448.352-.64.672-.171.32-.256.715-.256 1.184v.16l.448 12.896c.021.555.117 1.013.288 1.376.171.363.363.63.576.8.235.17.459.33.672.48.213.128.395.299.544.512.149.213.224.501.224.864 0 .384-.139.65-.416.8-.256.15-.736.224-1.44.224h-5.632c-.683 0-1.163-.075-1.44-.224-.277-.15-.416-.416-.416-.8 0-.384.096-.704.288-.96.192-.277.405-.49.64-.64.235-.15.448-.427.64-.832.192-.427.288-.96.288-1.6L173.893 7l-6.368 13.696c-.256.555-.693.896-1.312 1.024a2.955 2.955 0 0 1-.416.032c-.448 0-.757-.213-.928-.64l-5.888-13.92-.352 11.712v.128c0 .512.128.95.384 1.312.256.341.523.64.8.896s.416.533.416.832c0 .341-.117.576-.352.704-.213.128-.587.192-1.12.192h-3.168c-.597 0-1.013-.064-1.248-.192-.213-.15-.32-.395-.32-.736 0-.235.096-.459.288-.672ZM184.137.6h6.688c1.045 0 1.568.32 1.568.96 0 .256-.086.49-.256.704a5.154 5.154 0 0 1-.48.48c-.15.107-.224.288-.224.544 0 .043.01.16.032.352.021.192.202.544.544 1.056l3.52 5.504 3.136-5.376c.362-.768.543-1.29.543-1.568 0-.043-.021-.128-.063-.256-.022-.128-.182-.32-.48-.576-.278-.277-.416-.565-.416-.864 0-.619.522-.928 1.568-.928h3.424c1.216 0 1.824.31 1.824.928 0 .277-.118.523-.352.736-.214.192-.48.352-.8.48-.32.128-.694.373-1.12.736-.427.341-.8.757-1.12 1.248l-5.152 8.288v4.256c0 .875.106 1.59.32 2.144.234.533.48.875.736 1.024.256.15.49.352.704.608.234.235.352.533.352.896 0 .384-.139.65-.416.8-.256.15-.736.224-1.44.224h-5.888c-.683 0-1.174-.075-1.472-.224-.278-.15-.416-.416-.416-.8 0-.363.117-.661.352-.896.234-.256.48-.459.736-.608.277-.15.533-.49.768-1.024.234-.555.352-1.27.352-2.144V13.08l-5.664-8.416c-.427-.64-.907-1.141-1.44-1.504-.512-.363-.896-.63-1.152-.8-.256-.192-.384-.47-.384-.832 0-.619.522-.928 1.568-.928Zm22.36.224c.277-.15.768-.224 1.472-.224h7.52c3.328 0 5.909.747 7.744 2.24 1.856 1.472 2.784 3.445 2.784 5.92 0 2.944-1.195 4.97-3.584 6.08l2.208 3.776c.362.619.778 1.11 1.248 1.472.469.363.832.661 1.088.896.256.213.384.544.384.992 0 .384-.139.65-.416.8-.256.15-.726.224-1.408.224h-5.344c-1.024 0-1.536-.341-1.536-1.024 0-.299.128-.64.384-1.024.277-.384.448-.661.512-.832.064-.17.096-.299.096-.384 0-.299-.128-.725-.384-1.28l-1.504-2.592a19.1 19.1 0 0 1-1.312.032h-2.24c-.427 0-.64.213-.64.64v.768c0 .725.074 1.333.224 1.824.149.47.32.81.512 1.024.213.213.426.395.64.544.213.15.394.32.544.512.149.192.224.448.224.768 0 .384-.139.65-.416.8-.256.15-.747.224-1.472.224h-5.856c-.704 0-1.195-.075-1.472-.224-.278-.15-.416-.416-.416-.8 0-.363.117-.661.352-.896.234-.256.48-.459.736-.608.277-.15.533-.49.768-1.024.234-.555.352-1.27.352-2.144V6.552c0-1.003-.118-1.781-.352-2.336-.235-.576-.491-.928-.768-1.056a3.617 3.617 0 0 1-.736-.576c-.235-.235-.352-.555-.352-.96 0-.384.138-.65.416-.8Zm7.072 2.784V12.6c0 .405.192.693.576.864.405.15 1.077.224 2.016.224 1.493 0 2.613-.395 3.36-1.184.768-.79 1.152-1.888 1.152-3.296 0-1.984-.523-3.552-1.568-4.704-1.024-1.173-2.294-1.76-3.808-1.76-.726 0-1.195.064-1.408.192-.214.107-.32.33-.32.672ZM229.153.824c.277-.15.768-.224 1.472-.224h7.52c3.328 0 5.909.747 7.744 2.24 1.856 1.472 2.784 3.445 2.784 5.92 0 2.944-1.195 4.97-3.584 6.08l2.208 3.776c.362.619.778 1.11 1.248 1.472.469.363.832.661 1.088.896.256.213.384.544.384.992 0 .384-.139.65-.416.8-.256.15-.726.224-1.408.224h-5.344c-1.024 0-1.536-.341-1.536-1.024 0-.299.128-.64.384-1.024.277-.384.448-.661.512-.832.064-.17.096-.299.096-.384 0-.299-.128-.725-.384-1.28l-1.504-2.592a19.1 19.1 0 0 1-1.312.032h-2.24c-.427 0-.64.213-.64.64v.768c0 .725.074 1.333.224 1.824.149.47.32.81.512 1.024.213.213.426.395.64.544.213.15.394.32.544.512.149.192.224.448.224.768 0 .384-.139.65-.416.8-.256.15-.747.224-1.472.224h-5.856c-.704 0-1.195-.075-1.472-.224-.278-.15-.416-.416-.416-.8 0-.363.117-.661.352-.896.234-.256.48-.459.736-.608.277-.15.533-.49.768-1.024.234-.555.352-1.27.352-2.144V6.552c0-1.003-.118-1.781-.352-2.336-.235-.576-.491-.928-.768-1.056a3.617 3.617 0 0 1-.736-.576c-.235-.235-.352-.555-.352-.96 0-.384.138-.65.416-.8Zm7.072 2.784V12.6c0 .405.192.693.576.864.405.15 1.077.224 2.016.224 1.493 0 2.613-.395 3.36-1.184.768-.79 1.152-1.888 1.152-3.296 0-1.984-.523-3.552-1.568-4.704-1.024-1.173-2.294-1.76-3.808-1.76-.726 0-1.195.064-1.408.192-.214.107-.32.33-.32.672Zm15.52 17.44c.235-.235.48-.427.736-.576.277-.15.533-.49.768-1.024.235-.555.352-1.27.352-2.144V6.296c0-.725-.075-1.323-.224-1.792-.149-.49-.331-.843-.544-1.056a3.605 3.605 0 0 0-.608-.544 2.496 2.496 0 0 1-.544-.512c-.149-.192-.224-.448-.224-.768 0-.384.128-.65.384-.8.277-.15.779-.224 1.504-.224h5.856c.683 0 1.163.075 1.44.224.299.15.448.416.448.8 0 .363-.117.672-.352.928a3.303 3.303 0 0 1-.768.576c-.256.15-.501.501-.736 1.056-.235.533-.352 1.237-.352 2.112v2.368c0 .555.107.896.32 1.024.32.17 1.675.256 4.064.256h.416c2.56 0 4-.075 4.32-.224.256-.192.384-.544.384-1.056V6.296c0-.875-.117-1.579-.352-2.112-.213-.555-.448-.907-.704-1.056a3.645 3.645 0 0 1-.736-.576 1.404 1.404 0 0 1-.32-.928c0-.384.128-.65.384-.8.277-.15.768-.224 1.472-.224h5.888c.683 0 1.163.075 1.44.224.277.15.416.416.416.8 0 .32-.075.576-.224.768a2.496 2.496 0 0 1-.544.512c-.213.15-.427.33-.64.544-.213.213-.395.565-.544 1.056-.149.47-.224 1.067-.224 1.792v11.008c0 .875.107 1.59.32 2.144.235.533.48.875.736 1.024.256.15.491.352.704.608.235.235.352.533.352.896 0 .384-.139.65-.416.8-.256.15-.736.224-1.44.224h-5.888c-.683 0-1.163-.075-1.44-.224-.277-.15-.416-.416-.416-.8 0-.32.075-.576.224-.768.149-.192.331-.363.544-.512.213-.15.427-.33.64-.544.213-.213.395-.555.544-1.024.149-.49.224-1.099.224-1.824v-3.712c0-.555-.107-.896-.32-1.024-.299-.17-1.632-.256-4-.256h-.416c-2.603 0-4.064.075-4.384.224-.256.192-.384.544-.384 1.056v3.712c0 .725.075 1.333.224 1.824.149.47.32.81.512 1.024.213.213.427.395.64.544.213.15.395.32.544.512.149.192.224.448.224.768 0 .384-.139.65-.416.8-.256.15-.747.224-1.472.224h-5.856c-.704 0-1.195-.075-1.472-.224-.277-.15-.416-.416-.416-.8 0-.363.117-.672.352-.928ZM73.955 67.624c.127-.15.287-.277.48-.384.212-.107.415-.245.607-.416.192-.192.352-.512.48-.96.15-.47.224-1.056.224-1.76V51.592c0-.853-.106-1.536-.32-2.048-.192-.512-.416-.832-.672-.96a3.54 3.54 0 0 1-.672-.48.997.997 0 0 1-.288-.736c0-.277.128-.47.384-.576.256-.128.694-.192 1.312-.192h4.288c1.13 0 1.696.256 1.696.768a.946.946 0 0 1-.32.736 3.16 3.16 0 0 1-.704.48c-.234.128-.459.448-.672.96-.213.512-.32 1.195-.32 2.048v14.144c0 .576.17.981.512 1.216.363.213 1.078.32 2.144.32l1.728-.032c.81 0 1.462-.128 1.952-.384.512-.277.896-.608 1.152-.992.278-.384.597-.981.96-1.792.384-.853.79-1.28 1.216-1.28.064 0 .118.01.16.032.384.107.576.47.576 1.088v.192c-.085 1.536-.256 2.763-.512 3.68-.128.448-.362.768-.704.96-.32.17-.96.256-1.92.256H75.426c-.618 0-1.056-.053-1.312-.16-.256-.107-.384-.31-.384-.608 0-.256.075-.459.224-.608Zm17.806.608c0-.299.107-.544.32-.736a3.58 3.58 0 0 1 .672-.48c.256-.128.491-.448.704-.96.214-.512.32-1.195.32-2.048V51.592c0-.853-.106-1.536-.32-2.048-.192-.512-.416-.832-.672-.96a3.534 3.534 0 0 1-.672-.48.997.997 0 0 1-.288-.736c0-.277.128-.47.384-.576.256-.128.694-.192 1.312-.192h4.288c1.131 0 1.696.256 1.696.768a.946.946 0 0 1-.32.736 3.162 3.162 0 0 1-.704.48c-.234.128-.458.448-.672.96-.213.512-.32 1.195-.32 2.048v12.416c0 .853.096 1.536.288 2.048.214.512.438.832.672.96.256.128.48.288.672.48.214.192.32.437.32.736 0 .277-.128.48-.384.608-.256.107-.693.16-1.312.16h-4.288c-1.13 0-1.696-.256-1.696-.768Zm10.127 0c0-.235.096-.437.288-.608.192-.17.395-.32.608-.448.235-.15.448-.405.64-.768.213-.363.331-.81.352-1.344l.608-14.56v-.16c0-.427-.085-.8-.256-1.12-.149-.341-.331-.576-.544-.704a4.568 4.568 0 0 1-.608-.512 1.06 1.06 0 0 1-.256-.672c0-.277.096-.47.288-.576.213-.107.576-.16 1.088-.16h3.136c.491 0 .843.235 1.056.704l6.464 15.328 7.04-15.328c.213-.47.565-.704 1.056-.704h2.944c.939 0 1.408.245 1.408.736 0 .256-.096.48-.288.672-.171.17-.363.32-.576.448-.213.128-.405.363-.576.704-.149.32-.224.715-.224 1.184v.16l.448 14.144c.021.619.139 1.12.352 1.504.213.384.437.64.672.768.235.128.448.299.64.512.213.192.32.448.32.768 0 .299-.117.512-.352.64-.235.107-.64.16-1.216.16h-4.192c-1.131 0-1.696-.267-1.696-.8 0-.299.096-.555.288-.768.192-.213.395-.384.608-.512.235-.128.437-.373.608-.736.192-.384.288-.832.288-1.344v-.192l-.288-13.312-7.136 15.52c-.213.405-.555.661-1.024.768a1.429 1.429 0 0 1-.384.064c-.341 0-.587-.16-.736-.48l-6.56-15.648-.448 13.504v.192c0 .448.075.843.224 1.184.149.341.32.576.512.704.213.128.405.288.576.48a.83.83 0 0 1 .256.608c0 .299-.117.501-.352.608-.213.107-.576.16-1.088.16h-2.496c-.981 0-1.472-.256-1.472-.768Zm28.498 0c0-.299.107-.544.32-.736a3.58 3.58 0 0 1 .672-.48c.256-.128.491-.448.704-.96.214-.512.32-1.195.32-2.048V51.592c0-.853-.106-1.536-.32-2.048-.192-.512-.416-.832-.672-.96a3.58 3.58 0 0 1-.672-.48.997.997 0 0 1-.288-.736c0-.277.128-.47.384-.576.256-.128.694-.192 1.312-.192h4.288c1.131 0 1.696.256 1.696.768a.944.944 0 0 1-.32.736 3.153 3.153 0 0 1-.704.48c-.234.128-.458.448-.672.96-.213.512-.32 1.195-.32 2.048v12.416c0 .853.096 1.536.288 2.048.214.512.438.832.672.96.256.128.48.288.672.48.214.192.32.437.32.736 0 .277-.128.48-.384.608-.256.107-.693.16-1.312.16h-4.288c-1.13 0-1.696-.256-1.696-.768Zm9.903-16.736c.021-1.472.171-2.699.448-3.68.128-.448.363-.757.704-.928.341-.192.981-.288 1.92-.288l12.416-.032c.96 0 1.611.096 1.952.288.341.17.576.49.704.96.235.832.384 2.048.448 3.648v.192c0 .704-.245 1.056-.736 1.056a.797.797 0 0 1-.576-.256c-.171-.192-.373-.512-.608-.96a23.814 23.814 0 0 0-.768-1.408 5.073 5.073 0 0 0-.736-.896c-.299-.341-.64-.565-1.024-.672-.384-.107-.853-.16-1.408-.16-1.045 0-1.568.501-1.568 1.504v14.144c0 .853.096 1.536.288 2.048.213.512.437.832.672.96.235.128.448.288.64.48.213.192.32.437.32.736 0 .277-.128.48-.384.608-.235.107-.661.16-1.28.16h-4.32c-1.109 0-1.664-.256-1.664-.768 0-.235.064-.427.192-.576.149-.17.32-.32.512-.448s.384-.288.576-.48c.192-.192.352-.512.48-.96.149-.47.224-1.056.224-1.76V49.896c0-.533-.128-.917-.384-1.152-.235-.235-.629-.352-1.184-.352-1.067 0-1.835.213-2.304.64-.448.427-.992 1.248-1.632 2.464-.427.832-.832 1.248-1.216 1.248-.469 0-.704-.352-.704-1.056v-.192Zm20.946 16.128c.128-.15.288-.277.48-.384.214-.107.416-.245.608-.416.192-.192.352-.512.48-.96.15-.47.224-1.056.224-1.76V51.496c0-.704-.074-1.28-.224-1.728-.128-.47-.288-.79-.48-.96a2.34 2.34 0 0 0-.608-.448 2.314 2.314 0 0 1-.512-.384c-.128-.15-.192-.352-.192-.608 0-.299.128-.501.384-.608.256-.107.694-.16 1.312-.16l12.128-.032c.918 0 1.526.064 1.824.192.299.128.523.416.672.864.342.939.619 2.059.832 3.36.022.192.032.363.032.512 0 .47-.149.757-.448.864a.605.605 0 0 1-.192.032c-.426 0-.832-.341-1.216-1.024-.618-1.045-1.29-1.813-2.016-2.304-.725-.49-1.621-.736-2.688-.736h-1.632c-1.344 0-2.229.107-2.656.32-.405.213-.608.597-.608 1.152v3.552c0 .661.171 1.088.512 1.28.363.192.95.288 1.76.288h.608c.683 0 1.238-.053 1.664-.16.448-.107.747-.224.896-.352.15-.15.31-.277.48-.384.171-.107.363-.16.576-.16.448 0 .747.33.896.992l.704 3.168c.086.405.128.715.128.928 0 .107-.021.224-.064.352-.042.128-.202.235-.48.32a.355.355 0 0 1-.16.032c-.213 0-.458-.128-.736-.384a8.024 8.024 0 0 1-.768-.992c-.234-.405-.629-.779-1.184-1.12-.554-.363-1.205-.544-1.952-.544h-.608c-.81 0-1.397.096-1.76.288-.341.192-.512.619-.512 1.28v7.552c0 .576.214.981.64 1.216.427.213 1.334.32 2.72.32l2.304-.032c.811 0 1.462-.128 1.952-.384.512-.277.896-.608 1.152-.992.278-.384.598-.981.96-1.792.384-.853.79-1.28 1.216-1.28.064 0 .118.01.16.032.384.107.576.47.576 1.088v.192c-.085 1.536-.256 2.763-.512 3.68-.128.448-.362.768-.704.96-.32.17-.96.256-1.92.256h-12.576c-.618 0-1.056-.053-1.312-.16-.256-.107-.384-.31-.384-.608 0-.256.075-.459.224-.608Zm19.719 0c.128-.15.288-.277.48-.384.213-.107.416-.245.608-.416.192-.192.352-.512.48-.96.149-.47.224-1.056.224-1.76V51.496c0-.704-.075-1.28-.224-1.728-.128-.47-.288-.79-.48-.96a2.356 2.356 0 0 0-.608-.448 2.291 2.291 0 0 1-.512-.384c-.128-.15-.192-.352-.192-.608 0-.299.128-.501.384-.608.256-.107.693-.16 1.312-.16h7.104c2.155 0 4.064.32 5.728.96 1.685.619 3.008 1.461 3.968 2.528s1.675 2.219 2.144 3.456c.491 1.237.736 2.528.736 3.872 0 1.579-.245 3.05-.736 4.416a11.412 11.412 0 0 1-2.08 3.68c-.917 1.067-2.144 1.92-3.68 2.56-1.536.619-3.275.928-5.216.928h-7.968c-.619 0-1.056-.053-1.312-.16-.256-.107-.384-.31-.384-.608 0-.256.075-.459.224-.608Zm5.504-18.016v15.808c0 .683.235 1.173.704 1.472.469.299 1.419.448 2.848.448 2.923 0 5.013-.757 6.272-2.272 1.259-1.515 1.888-3.51 1.888-5.984 0-3.136-.885-5.728-2.656-7.776-1.749-2.07-4.096-3.104-7.04-3.104-.789 0-1.323.096-1.6.288-.277.17-.416.544-.416 1.12Z" fill="#040B71" fill-opacity=".94"/></svg>